<svg xmlns="http://www.w3.org/2000/svg" width="32" height="32" fill="none" viewBox="0 0 32 32">
  <path fill="url(#a)" d="M17.7472 4.61365c.0877.15184.0877.33892 0 .49077L5.73317 25.9136c-.18889.3272.04722.7361.42501.7361h2.64445c.17533 0 .33734-.0935.425-.2453L19.3528 8.86688c.1889-.32717.6611-.32717.85 0L31.9335 29.1853c.1889.3272-.0472.7361-.425.7361h-10.2c-.1754 0-.3374-.0935-.425-.2453l-2.8529-4.9415c-.0877-.1518-.0877-.3389 0-.4907l1.3222-2.29c.1889-.3271.6611-.3271.85 0l2.5696 4.4505c.0876.1518.2496.2453.425.2453h2.6444c.3778 0 .6139-.4089.425-.7361l-6.064-10.503c-.1889-.3272-.6611-.3272-.85 0l-8.2363 14.2655c-.0876.1518-.2496.2453-.425.2453H.491489c-.377784 0-.6139-.4089-.4250082-.7361L15.575 2.32375c.1889-.32717.6611-.32718.85-.00002z"/>
  <defs>
    <linearGradient id="a" x1="16.0001" x2="16.0001" y1="1.58763" y2="29.9214" gradientUnits="userSpaceOnUse">
      <stop stop-color="#00acff"/>
      <stop offset="1" stop-color="#06f"/>
    </linearGradient>
  </defs>
</svg>
